Coordinates
version=1
nRows=19
nColumns=63
inDegrees=yes

Units are S.I. units (second, meters, Newtons, ...)
If the header above contains a line with 'inDegrees', this indicates whether rotational values are in degrees (yes) or radians (no).

endheader
time	pelvis_tilt	pelvis_list	pelvis_rotation	pelvis_tx	pelvis_ty	pelvis_tz	hip_flexion_r	hip_adduction_r	hip_rotation_r	knee_angle_r	knee_angle_r_beta	ankle_angle_r	subtalar_angle_r	mtp_angle_r	hip_flexion_l	hip_adduction_l	hip_rotation_l	knee_angle_l	knee_angle_l_beta	ankle_angle_l	subtalar_angle_l	mtp_angle_l	L5_S1_Flex_Ext	L5_S1_Lat_Bending	L5_S1_axial_rotation	L4_L5_Flex_Ext	L4_L5_Lat_Bending	L4_L5_axial_rotation	L3_L4_Flex_Ext	L3_L4_Lat_Bending	L3_L4_axial_rotation	L2_L3_Flex_Ext	L2_L3_Lat_Bending	L2_L3_axial_rotation	L1_L2_Flex_Ext	L1_L2_Lat_Bending	L1_L2_axial_rotation	L1_T12_Flex_Ext	L1_T12_Lat_Bending	L1_T12_axial_rotation	Abs_r3	Abs_r2	Abs_r1	Abs_t1	Abs_t2	neck_flexion	neck_bending	neck_rotation	arm_flex_r	arm_add_r	arm_rot_r	elbow_flex_r	pro_sup_r	wrist_flex_r	wrist_dev_r	arm_flex_l	arm_add_l	arm_rot_l	elbow_flex_l	pro_sup_l	wrist_flex_l	wrist_dev_l
0.000000	-3.201069	-4.832238	101.987335	0.228494	0.872501	0.676212	3.177006	-4.684711	-14.642138	9.090078	0.158652	27.655226	-4.264418	0.000000	2.869006	3.466297	26.031592	1.344330	0.023463	25.812906	-12.440961	0.000000	0.141160	-0.353186	-0.845561	0.262148	-0.469738	-0.898408	0.231912	-0.858737	-0.898408	0.161332	-0.858737	-0.739866	0.131081	-0.720217	-0.687018	0.080659	-0.547085	-0.634171	1.008292	-3.995313	-4.702755	0.000000	0.000000	26.501403	-0.669086	-2.494832	30.159443	-5.222125	35.838142	51.228070	69.465720	1.583987	-12.564061	25.823413	-5.043077	30.541614	59.938670	58.520429	-6.882510	-2.050394
0.017241	-3.060798	-4.175829	101.795291	0.229897	0.873547	0.671389	2.116094	-4.165812	-13.882424	8.483732	0.148069	27.871270	-4.458565	0.000000	1.828794	2.994818	25.590113	1.103603	0.019262	26.555413	-11.589622	0.000000	0.138039	-0.347751	-0.948480	0.256352	-0.462509	-1.007760	0.226784	-0.845523	-1.007760	0.157765	-0.845523	-0.829920	0.128183	-0.709135	-0.770640	0.078876	-0.538667	-0.711360	0.986000	-3.933833	-5.275162	0.000000	0.000000	26.285105	0.648383	-0.958984	29.044195	-5.392879	36.497517	52.227232	68.392536	3.188376	-10.908734	24.690899	-5.453173	29.775161	60.567266	56.941006	-6.738248	0.047035
0.034483	-2.935090	-3.625688	101.612436	0.231139	0.874464	0.667412	1.232459	-3.717898	-13.170553	7.971209	0.139124	28.014033	-4.672411	0.000000	0.957616	2.595351	25.207166	0.906487	0.015821	27.075460	-10.982461	0.000000	0.135546	-0.341642	-1.026905	0.251722	-0.454384	-1.091086	0.222688	-0.830668	-1.091086	0.154915	-0.830668	-0.898542	0.125868	-0.696676	-0.834360	0.077451	-0.529204	-0.770179	0.968189	-3.864723	-5.711337	0.000000	0.000000	26.086158	1.740261	0.375265	28.075159	-5.533352	36.928376	53.095098	67.480604	4.607530	-9.366003	23.662277	-5.855349	29.234818	61.195082	55.742831	-6.561306	1.743839
0.051724	-2.822997	-3.173716	101.441132	0.232226	0.875259	0.664212	0.512064	-3.335986	-12.508750	7.544756	0.131681	28.094282	-4.900777	0.000000	0.242795	2.262118	24.874689	0.749364	0.013079	27.401583	-10.583546	0.000000	0.133651	-0.334977	-1.083402	0.248204	-0.445520	-1.151115	0.219575	-0.814464	-1.151115	0.152750	-0.814464	-0.947977	0.124108	-0.683086	-0.880264	0.076368	-0.518880	-0.812552	0.954657	-3.789329	-6.025559	0.000000	0.000000	25.904414	2.624659	1.520842	27.241574	-5.647313	37.156735	53.842473	66.738228	5.844468	-7.941743	22.733776	-6.247101	28.897696	61.817230	54.885525	-6.357919	3.073323
0.068966	-2.723576	-2.811814	101.283742	0.233166	0.875940	0.661717	-0.059130	-3.015099	-11.899240	7.196622	0.125605	28.122786	-5.138484	0.000000	-0.328347	1.989345	24.584623	0.628617	0.010971	27.562318	-10.356942	0.000000	0.132327	-0.327876	-1.120540	0.245745	-0.436075	-1.190574	0.217400	-0.797198	-1.190574	0.151237	-0.797198	-0.980473	0.122879	-0.668605	-0.910439	0.075612	-0.507880	-0.840405	0.945199	-3.709001	-6.232108	0.000000	0.000000	25.739726	3.319693	2.490676	26.532678	-5.738531	37.208609	54.480167	66.173711	6.902212	-6.641830	21.901625	-6.625928	28.740905	62.428820	54.328707	-6.134324	4.068789
0.086207	-2.635879	-2.531882	101.142627	0.233966	0.876512	0.659859	-0.495161	-2.750255	-11.344250	6.919056	0.120760	28.110314	-5.380354	0.000000	-0.768488	1.771256	24.328905	0.540627	0.009436	27.586200	-10.266719	0.000000	0.131545	-0.320458	-1.140886	0.244292	-0.426209	-1.212191	0.216115	-0.779161	-1.212191	0.150343	-0.779161	-0.998275	0.122153	-0.653478	-0.926970	0.075165	-0.496389	-0.855664	0.939612	-3.625084	-6.345264	0.000000	0.000000	25.591946	3.843475	3.297697	25.937711	-5.810775	37.110016	55.018987	65.795356	7.783781	-5.472140	21.162054	-6.989328	28.741552	63.024965	54.031998	-5.896758	4.763543
0.103448	-2.558962	-2.325822	101.020150	0.234633	0.876985	0.658568	-0.810068	-2.536474	-10.846006	6.704307	0.117012	28.067634	-5.621208	0.000000	-1.090304	1.602073	24.099474	0.481779	0.008409	27.501764	-10.276944	0.000000	0.131276	-0.312842	-1.147006	0.243793	-0.416080	-1.218694	0.215673	-0.760643	-1.218694	0.150035	-0.760643	-1.003631	0.121903	-0.637947	-0.931943	0.075011	-0.484592	-0.860255	0.937691	-3.538929	-6.379306	0.000000	0.000000	25.460928	4.214117	3.954834	25.445911	-5.867814	36.886971	55.469739	65.611467	8.492195	-4.438549	20.511292	-7.334799	28.876749	63.600776	53.955018	-5.651457	5.190886
0.120690	-2.491880	-2.185534	100.918675	0.235174	0.877365	0.657773	-1.017890	-2.368778	-10.406732	6.544623	0.114225	28.005514	-5.855868	0.000000	-1.306476	1.476022	23.888270	0.448453	0.007827	27.337547	-10.351684	0.000000	0.131492	-0.305147	-1.141470	0.244194	-0.405845	-1.212812	0.216028	-0.741934	-1.212812	0.150282	-0.741934	-0.998786	0.122103	-0.622255	-0.927444	0.075134	-0.472672	-0.856102	0.939234	-3.451881	-6.348513	0.000000	0.000000	25.346524	4.449733	4.475014	25.046516	-5.913418	36.565490	55.843232	65.630347	9.030476	-3.546932	19.945569	-7.659839	29.123605	64.151365	54.057388	-5.404657	5.384124
0.137931	-2.433685	-2.102918	100.840562	0.235596	0.877658	0.657404	-1.132664	-2.242185	-10.028655	6.432252	0.112264	27.934722	-6.079155	0.000000	-1.429679	1.387326	23.687230	0.437033	0.007628	27.122084	-10.455007	0.000000	0.132164	-0.297492	-1.126844	0.245442	-0.395664	-1.197271	0.217133	-0.723322	-1.197271	0.151050	-0.723322	-0.985988	0.122728	-0.606646	-0.915560	0.075519	-0.460815	-0.845133	0.944036	-3.365290	-6.267166	0.000000	0.000000	25.248586	4.568437	4.871167	24.728765	-5.951354	36.171589	56.150273	65.860300	9.401642	-2.803165	19.461114	-7.961945	29.459228	64.671844	54.298727	-5.162596	5.376559
0.155172	-2.383434	-2.069876	100.788175	0.235907	0.877873	0.657392	-1.168430	-2.151715	-9.714001	6.359443	0.110993	27.866028	-6.285892	0.000000	-1.472592	1.330210	23.488294	0.443901	0.007748	26.883911	-10.550981	0.000000	0.133264	-0.289997	-1.105695	0.247485	-0.385696	-1.174801	0.218940	-0.705098	-1.174801	0.152308	-0.705098	-0.967483	0.123749	-0.591362	-0.898377	0.076147	-0.449205	-0.829271	0.951893	-3.280502	-6.149544	0.000000	0.000000	25.166968	4.588341	5.156222	24.481897	-5.985392	35.731284	56.401670	66.309628	9.608715	-2.213125	19.054157	-8.238617	29.860730	65.157323	54.638657	-4.931508	5.201495
0.172414	-2.340180	-2.078307	100.763875	0.236113	0.878016	0.657666	-1.139225	-2.092390	-9.464995	6.318445	0.110278	27.810198	-6.470898	0.000000	-1.447893	1.298896	23.283401	0.465440	0.008123	26.651562	-10.603672	0.000000	0.134764	-0.282780	-1.080592	0.250269	-0.376098	-1.148129	0.221403	-0.687552	-1.148129	0.154021	-0.687552	-0.945518	0.125141	-0.576646	-0.877981	0.077004	-0.438027	-0.810444	0.962602	-3.198867	-6.009926	0.000000	0.000000	25.101522	4.527558	5.343108	24.295151	-6.019302	35.270591	56.608230	66.986636	9.654714	-1.782686	18.720928	-8.487353	30.305218	65.602915	55.036798	-4.717632	4.892235
0.189655	-2.289206	-2.111719	100.819235	0.236170	0.878092	0.658135	-1.075584	-2.050742	-9.464390	6.277191	0.109558	27.880250	-6.394540	0.000000	-1.368460	1.270528	22.921253	0.515970	0.009005	26.573682	-10.240309	0.000000	0.136701	-0.275427	-1.061053	0.253867	-0.366317	-1.127369	0.224585	-0.669672	-1.127369	0.156235	-0.669672	-0.928422	0.126940	-0.561650	-0.862106	0.078111	-0.426636	-0.795790	0.976439	-3.115682	-5.901261	0.000000	0.000000	25.046542	4.442674	5.445871	24.100944	-6.068624	34.748964	56.855799	68.138055	9.421333	-1.583396	18.527620	-8.652348	30.780550	65.929734	55.280486	-4.623187	4.472165
0.206897	-2.246463	-2.179724	100.912194	0.236157	0.878105	0.658710	-0.969436	-2.028772	-9.460239	6.233539	0.108796	27.997352	-6.380632	0.000000	-1.241174	1.254293	22.569281	0.553088	0.009653	26.621433	-9.756177	0.000000	0.139738	-0.269052	-1.046173	0.259508	-0.357839	-1.111559	0.229576	-0.654172	-1.111559	0.159707	-0.654172	-0.915401	0.129761	-0.548650	-0.850016	0.079847	-0.416761	-0.784630	0.998137	-3.043566	-5.818501	0.000000	0.000000	25.031424	4.316379	5.488036	23.988708	-6.109073	34.351764	57.030909	69.540399	9.039199	-1.587902	18.386696	-8.778959	31.151652	66.203190	55.396236	-4.498248	4.075608
0.224138	-2.207203	-2.269049	101.052022	0.236054	0.878064	0.659331	-0.839830	-2.015549	-9.437981	6.187064	0.107985	28.125216	-6.493111	0.000000	-1.077390	1.242425	22.119093	0.585503	0.010219	26.826362	-8.988798	0.000000	0.143270	-0.263027	-1.037809	0.266067	-0.349826	-1.102672	0.235378	-0.639524	-1.102672	0.163743	-0.639524	-0.908083	0.133040	-0.536364	-0.843219	0.081864	-0.407429	-0.778356	1.023363	-2.975413	-5.771980	0.000000	0.000000	25.044942	4.154162	5.472913	23.920011	-6.157233	34.040905	57.189390	71.164493	8.577631	-1.678599	18.300910	-8.874075	31.463218	66.432337	54.975130	-4.285513	3.757009
0.241379	-2.180509	-2.370221	101.240414	0.235859	0.877984	0.659939	-0.698015	-2.023416	-9.485324	6.160912	0.107528	28.289967	-6.627994	0.000000	-0.893418	1.243899	21.706634	0.614662	0.010728	27.118858	-8.148846	0.000000	0.147351	-0.259231	-1.036848	0.273646	-0.344778	-1.101651	0.242083	-0.630295	-1.101651	0.168408	-0.630295	-0.907242	0.136830	-0.528624	-0.842439	0.084197	-0.401549	-0.777636	1.052516	-2.932476	-5.766638	0.000000	0.000000	25.073983	3.944441	5.343889	23.886395	-6.243681	33.909150	57.328405	73.029781	7.879996	-2.068703	18.257806	-8.942363	31.729247	66.623422	54.593372	-4.146089	3.482408
0.258621	-2.165734	-2.462195	101.440673	0.235604	0.877883	0.660459	-0.566037	-2.047241	-9.580428	6.162216	0.107551	28.475570	-6.758070	0.000000	-0.722447	1.253212	21.295755	0.636079	0.011102	27.471590	-7.245969	0.000000	0.151043	-0.257247	-1.040020	0.280503	-0.342138	-1.105021	0.248149	-0.625469	-1.105021	0.172627	-0.625469	-0.910017	0.140259	-0.524577	-0.845016	0.086306	-0.398475	-0.780015	1.078888	-2.910025	-5.784279	0.000000	0.000000	25.098022	3.733367	5.141545	23.868418	-6.381153	33.973608	57.456955	75.082310	6.982589	-2.777216	18.245969	-9.007089	32.006314	66.778127	54.267605	-4.106084	3.126840
0.275862	-2.154839	-2.528240	101.616332	0.235321	0.877772	0.660849	-0.467359	-2.069672	-9.660200	6.177208	0.107813	28.634462	-6.924442	0.000000	-0.588433	1.258678	20.997404	0.651106	0.011364	27.829817	-6.471371	0.000000	0.153369	-0.254651	-1.048611	0.284822	-0.338686	-1.114149	0.251971	-0.619158	-1.114149	0.175286	-0.619158	-0.917535	0.142419	-0.519284	-0.851997	0.087635	-0.394454	-0.786458	1.095503	-2.880661	-5.832061	0.000000	0.000000	25.110508	3.592967	5.050734	23.835933	-6.531214	34.121426	57.598388	77.287096	6.064848	-3.529766	18.204167	-9.055092	32.175834	66.946725	54.356740	-4.204376	2.825010
0.293103	-2.162260	-2.566107	101.775296	0.235033	0.877650	0.661044	-0.416869	-2.100168	-9.712920	6.199166	0.108196	28.773432	-7.127200	0.000000	-0.502889	1.273021	20.798411	0.660265	0.011524	28.177218	-5.813530	0.000000	0.154979	-0.254205	-1.063485	0.287811	-0.338092	-1.129953	0.254615	-0.618074	-1.129953	0.177125	-0.618074	-0.930550	0.143913	-0.518374	-0.864082	0.088555	-0.393763	-0.797614	1.106999	-2.875615	-5.914787	0.000000	0.000000	25.106934	3.511287	5.003689	23.752771	-6.686077	34.342131	57.760703	79.580748	5.076784	-4.427175	18.150540	-9.148835	32.341815	67.148021	54.858105	-4.422043	2.491133
0.310345	-2.179077	-2.567264	101.860328	0.234790	0.877535	0.661047	-0.400672	-2.135507	-9.734401	6.259362	0.109246	28.904780	-7.289554	0.000000	-0.479010	1.290170	20.712780	0.665183	0.011610	28.454234	-5.389136	0.000000	0.155005	-0.254462	-1.072915	0.287859	-0.338435	-1.139973	0.254657	-0.618700	-1.139973	0.177155	-0.618700	-0.938801	0.143937	-0.518900	-0.871744	0.088570	-0.394162	-0.804687	1.107182	-2.878531	-5.967233	0.000000	0.000000	25.087528	3.461379	4.963070	23.638222	-6.871341	34.648726	57.946229	81.710708	4.189238	-5.383186	18.084020	-9.250106	32.454289	67.344880	55.864386	-4.680843	2.086853
